<?xml version="1.0" standalone="no"?>
<svg viewBox="0 0 200 200" xmlns="http://www.w3.org/2000/svg">
  <path fill="#FFE8C7" d="M47.1,-77.8C61.2,-73.4,72.8,-61.1,79.7,-46.8C86.6,-32.5,88.7,-16.3,84.8,-2.2C81,11.8,71.1,23.6,62.4,34.7C53.7,45.8,46.1,56.2,35.9,66.7C25.7,77.2,12.8,87.7,-1.1,89.6C-15.1,91.5,-30.1,84.9,-42.5,75.7C-54.8,66.5,-64.5,54.6,-72.8,41.6C-81.2,28.5,-88.3,14.3,-90.4,-1.2C-92.4,-16.6,-89.4,-33.3,-79.2,-43.2C-69,-53.1,-51.7,-56.3,-37.3,-60.5C-22.9,-64.7,-11.4,-69.9,2.5,-74.3C16.5,-78.7,33,-82.2,47.1,-77.8Z" transform="translate(100 100)" />
</svg>
